<svg id="designing_brand_identity" data-name="designing brand identity" xmlns="http://www.w3.org/2000/svg" viewBox="0 0 300 400"><title>designing-brand-identity</title><rect y="144" width="52" height="59" style="fill:#e8005d"/><rect x="251" y="144" width="49" height="59" style="fill:#98004a"/><rect x="52" y="144" width="100" height="59" style="fill:#b2005f"/><rect x="152" y="144" width="100" height="59" style="fill:#e8005d"/><rect width="100" height="50" style="fill:#ffc300"/><rect x="100" width="100" height="50" style="fill:#f17c00"/><rect x="200" width="100" height="50" style="fill:#faa600"/><rect y="50" width="52" height="50" style="fill:#ef0000"/><rect x="251" y="50" width="49" height="50" style="fill:#ef0000"/><rect x="52" y="50" width="100" height="50" style="fill:#d30000"/><rect x="152" y="50" width="100" height="50" style="fill:#ea5700"/><rect y="100" width="100" height="50" style="fill:#1d2481"/><rect x="100" y="100" width="100" height="50" style="fill:#00112a"/><rect x="200" y="100" width="100" height="50" style="fill:#13308c"/><rect y="200" width="100" height="50" style="fill:#00a8f0"/><rect x="100" y="200" width="100" height="50" style="fill:#004b89"/><rect x="200" y="200" width="100" height="50" style="fill:#105daf"/><rect y="250" width="52" height="50" style="fill:#880082"/><rect x="251" y="250" width="49" height="50" style="fill:#880082"/><rect x="52" y="250" width="100" height="50" style="fill:#3c187a"/><rect x="152" y="250" width="100" height="50" style="fill:#56157a"/><rect y="300" width="100" height="50" style="fill:#adc400"/><rect x="100" y="300" width="100" height="50" style="fill:#fef300"/><rect x="200" y="300" width="100" height="50" style="fill:#8ac200"/><rect y="350" width="52" height="50" style="fill:#424300"/><rect x="251" y="350" width="49" height="50" style="fill:#6f6d00"/><rect x="52" y="350" width="100" height="50" style="fill:#6f6d00"/><rect x="152" y="350" width="100" height="50" style="fill:#272b00"/><rect x="36" y="76" width="196.46" height="56"/><rect x="36" y="129.67" width="127" height="53.67"/><rect x="36" y="182" width="158.63" height="55"/><path d="M58.46,88.49c8,0,12.78,4.79,12.78,13.3s-4.73,13.5-12.78,13.5H48.23V88.49Zm-4.62,22.15h4c5,0,7.73-3,7.73-8.84,0-5.61-2.79-8.69-7.73-8.69h-4Z" style="fill:#fff"/><path d="M92.53,109.2c-.59,3.88-4.2,6.44-9.08,6.44-6.09,0-9.8-3.88-9.8-10.21S77.38,95,83.25,95s9.45,3.84,9.45,9.9v1.65H79v.33a4.41,4.41,0,0,0,4.57,4.72,4,4,0,0,0,4-2.43ZM79,103.26h8.45A4.08,4.08,0,0,0,83.3,99,4.26,4.26,0,0,0,79,103.26Z" style="fill:#fff"/><path d="M103.54,95c5,0,8.26,2.51,8.32,6.35h-5c-.09-1.56-1.39-2.54-3.4-2.54s-3.1.84-3.1,2.1c0,1,.85,1.62,2.6,2l3.81.82c4,.89,5.61,2.45,5.61,5.4,0,3.9-3.6,6.46-8.86,6.46s-8.6-2.54-8.88-6.41h5.29c.24,1.65,1.58,2.6,3.73,2.6s3.31-.8,3.31-2.08c0-1-.67-1.52-2.45-2l-3.68-.82c-3.77-.85-5.7-2.8-5.7-5.72C95.15,97.5,98.44,95,103.54,95Z" style="fill:#fff"/><path d="M115,90.39a2.9,2.9,0,1,1,2.9,2.8A2.81,2.81,0,0,1,115,90.39Zm.19,5h5.42v19.91h-5.42Z" style="fill:#fff"/><path d="M124.08,116.7h5.31c.43,1.37,2,2.32,4,2.32,2.8,0,4.36-1.56,4.36-3.86v-3.49h-.11c-.93,2.12-3.27,3.49-6.15,3.49-4.85,0-8.08-3.75-8.08-9.9s3.14-10.12,8.17-10.12a6.55,6.55,0,0,1,6.15,3.66h.09V95.38h5.35V115c0,4.75-4,7.78-9.94,7.78C128.05,122.79,124.51,120.25,124.08,116.7Zm13.74-11.4c0-3.51-1.73-5.79-4.44-5.79S129,101.75,129,105.3s1.67,5.68,4.36,5.68S137.82,108.83,137.82,105.3Z" style="fill:#fff"/><path d="M146.75,95.38H152V99h.11a6.23,6.23,0,0,1,6.22-3.88c4.42,0,6.91,2.79,6.91,7.45v12.76h-5.42V103.67c0-2.6-1.21-4.08-3.68-4.08s-4,1.78-4,4.38v11.33h-5.42Z" style="fill:#fff"/><path d="M168.57,90.39a2.9,2.9,0,1,1,2.9,2.8A2.81,2.81,0,0,1,168.57,90.39Zm.19,5h5.42v19.91h-5.42Z" style="fill:#fff"/><path d="M177.78,95.38H183V99h.11a6.23,6.23,0,0,1,6.22-3.88c4.42,0,6.91,2.79,6.91,7.45v12.76h-5.42V103.67c0-2.6-1.21-4.08-3.68-4.08s-4,1.78-4,4.38v11.33h-5.42Z" style="fill:#fff"/><path d="M199.58,116.7h5.31c.43,1.37,2,2.32,4,2.32,2.8,0,4.36-1.56,4.36-3.86v-3.49h-.11c-.93,2.12-3.27,3.49-6.15,3.49-4.85,0-8.08-3.75-8.08-9.9s3.14-10.12,8.17-10.12a6.55,6.55,0,0,1,6.15,3.66h.09V95.38h5.35V115c0,4.75-4,7.78-9.94,7.78C203.55,122.79,200,120.25,199.58,116.7Zm13.74-11.4c0-3.51-1.73-5.79-4.44-5.79s-4.36,2.25-4.36,5.79,1.67,5.68,4.36,5.68S213.32,108.83,213.32,105.3Z" style="fill:#fff"/><path d="M48.23,168.92v-26.8H59.89c5,0,8.19,2.58,8.19,6.69a5.91,5.91,0,0,1-5,5.81v.15a6.5,6.5,0,0,1,6.31,6.48c0,4.72-3.55,7.67-9.27,7.67Zm5.61-15.65h4c3,0,4.7-1.32,4.7-3.58s-1.5-3.38-4.12-3.38H53.84Zm4.83,11.48c3.23,0,5-1.37,5-3.94S61.84,157,58.53,157h-4.7v7.78Z" style="fill:#fff"/><path d="M72.09,149h5.24v3.58h.11a4.72,4.72,0,0,1,4.74-3.83,5,5,0,0,1,1.54.2v4.77a5.59,5.59,0,0,0-2-.32c-2.67,0-4.23,1.63-4.23,4.44v11H72.09Z" style="fill:#fff"/><path d="M84.64,163.19c0-3.62,2.79-5.68,7.89-6l4.92-.3v-1.3c0-1.88-1.3-2.9-3.42-2.9-1.88,0-3.21,1-3.45,2.41H85.64c.15-3.84,3.58-6.46,8.64-6.46s8.5,2.64,8.5,6.61v13.65H97.55v-3h-.11a6.84,6.84,0,0,1-6.07,3.34C87.54,169.22,84.64,166.75,84.64,163.19Zm12.81-1.56V160.2l-4.1.26c-2.15.15-3.31,1-3.31,2.43s1.23,2.4,3.1,2.4C95.54,165.28,97.45,163.76,97.45,161.63Z" style="fill:#fff"/><path d="M106.27,149h5.24v3.58h.11a6.23,6.23,0,0,1,6.22-3.88c4.42,0,6.91,2.79,6.91,7.45v12.76h-5.42V157.3c0-2.6-1.21-4.08-3.68-4.08s-4,1.78-4,4.38v11.33h-5.42Z" style="fill:#fff"/><path d="M127.46,158.93c0-6.24,3.19-10.16,8.15-10.16a6.36,6.36,0,0,1,6.07,3.66h.11V142.13h5.42v26.8h-5.35v-3.42h-.09a6.51,6.51,0,0,1-6.2,3.66C130.64,169.17,127.46,165.23,127.46,158.93Zm5.55,0c0,3.58,1.71,5.83,4.4,5.83s4.42-2.27,4.42-5.83-1.73-5.83-4.42-5.83S133,155.41,133,159Z" style="fill:#fff"/><path d="M48.23,222.56v-26.8h5.61v26.8Z" style="fill:#fff"/><path d="M57.1,212.57c0-6.24,3.19-10.16,8.15-10.16a6.36,6.36,0,0,1,6.07,3.66h.11V195.76h5.42v26.8H71.51v-3.42h-.09a6.51,6.51,0,0,1-6.2,3.66C60.28,222.8,57.1,218.86,57.1,212.57Zm5.55,0c0,3.58,1.71,5.83,4.4,5.83s4.42-2.27,4.42-5.83-1.73-5.83-4.42-5.83S62.66,209,62.66,212.61Z" style="fill:#fff"/><path d="M98.64,216.47c-.59,3.88-4.2,6.44-9.08,6.44-6.09,0-9.8-3.88-9.8-10.21s3.73-10.4,9.6-10.4,9.45,3.84,9.45,9.9v1.65H85.09v.33a4.41,4.41,0,0,0,4.57,4.72,4,4,0,0,0,4-2.43Zm-13.5-5.94h8.45a4.08,4.08,0,0,0-4.18-4.22A4.26,4.26,0,0,0,85.14,210.53Z" style="fill:#fff"/><path d="M101.59,202.65h5.24v3.58h.11a6.23,6.23,0,0,1,6.22-3.88c4.42,0,6.91,2.79,6.91,7.45v12.76h-5.42V210.93c0-2.6-1.21-4.08-3.68-4.08s-4,1.78-4,4.38v11.33h-5.42Z" style="fill:#fff"/><path d="M130.38,198.06v4.59h3.68v4.09h-3.68v9.51c0,1.52.74,2.27,2.34,2.27a8.79,8.79,0,0,0,1.32-.09v4a13.94,13.94,0,0,1-2.58.22c-4.68,0-6.5-1.58-6.5-5.46V206.74h-2.8v-4.09H125v-4.59Z" style="fill:#fff"/><path d="M136.93,197.66a2.9,2.9,0,1,1,2.9,2.8A2.81,2.81,0,0,1,136.93,197.66Zm.19,5h5.42v19.91h-5.42Z" style="fill:#fff"/><path d="M153,198.06v4.59h3.68v4.09H153v9.51c0,1.52.74,2.27,2.34,2.27a8.77,8.77,0,0,0,1.32-.09v4a13.93,13.93,0,0,1-2.58.22c-4.68,0-6.5-1.58-6.5-5.46V206.74h-2.8v-4.09h2.8v-4.59Z" style="fill:#fff"/><path d="M160.16,229.88V225.7c.17,0,1,0,1.17,0,2,0,3.14-.67,3.53-2.21l.2-.84-7-20h6l4.23,15.56h.09l4.23-15.56h5.72L171.49,223c-1.71,5.13-4.23,6.93-9.28,6.93C162,229.93,160.33,229.91,160.16,229.88Z" style="fill:#fff"/><rect x="36" y="281" width="121.67" height="27.33"/><path d="M53.46,297.27h-4L48.64,300H46.22l3.91-11.27h2.77L56.83,300H54.32ZM50,295.5H53l-1.45-4.62h-.05Z" style="fill:#fff"/><path d="M57.84,288.73h2.28V300H57.84Z" style="fill:#fff"/><path d="M61.62,289.52a1.22,1.22,0,1,1,1.22,1.18A1.18,1.18,0,0,1,61.62,289.52Zm.08,2.1H64V300H61.69Z" style="fill:#fff"/><path d="M65.49,291.63h2.2v1.51h0a2.62,2.62,0,0,1,2.62-1.63c1.86,0,2.91,1.17,2.91,3.13V300H71v-4.89c0-1.09-.51-1.72-1.55-1.72a1.65,1.65,0,0,0-1.66,1.84V300H65.49Z" style="fill:#fff"/><path d="M74.37,297.59c0-1.52,1.17-2.39,3.32-2.52l2.07-.12v-.55c0-.79-.55-1.22-1.44-1.22a1.34,1.34,0,0,0-1.45,1H74.79c.06-1.62,1.51-2.72,3.63-2.72S82,292.59,82,294.26V300H79.8v-1.28h0a2.88,2.88,0,0,1-2.55,1.41A2.61,2.61,0,0,1,74.37,297.59Zm5.39-.66v-.6l-1.73.11c-.91.06-1.39.43-1.39,1s.52,1,1.3,1A1.66,1.66,0,0,0,79.76,296.93Z" style="fill:#fff"/><path d="M91.44,300H89.21l-3-11.27h2.45l1.77,8.16h.06l2.11-8.16h2l2.11,8.16h.06l1.78-8.16H101L98,300H95.79l-2.14-7.7h-.07Z" style="fill:#fff"/><path d="M102.13,288.73h2.24v4.41h0a2.65,2.65,0,0,1,2.63-1.63c1.86,0,2.92,1.2,2.92,3.14V300h-2.28v-4.87c0-1.08-.53-1.73-1.57-1.73a1.67,1.67,0,0,0-1.71,1.86V300h-2.28Z" style="fill:#fff"/><path d="M119.07,297.44c-.25,1.63-1.77,2.71-3.82,2.71-2.56,0-4.12-1.63-4.12-4.3s1.57-4.37,4-4.37,4,1.62,4,4.16v.7h-5.77v.14a1.85,1.85,0,0,0,1.92,2,1.67,1.67,0,0,0,1.69-1Zm-5.68-2.5h3.55a1.72,1.72,0,0,0-1.76-1.77A1.79,1.79,0,0,0,113.39,294.94Z" style="fill:#fff"/><path d="M128,297.44c-.25,1.63-1.77,2.71-3.82,2.71-2.56,0-4.12-1.63-4.12-4.3s1.57-4.37,4-4.37,4,1.62,4,4.16v.7h-5.77v.14a1.85,1.85,0,0,0,1.92,2,1.67,1.67,0,0,0,1.69-1Zm-5.68-2.5h3.55a1.72,1.72,0,0,0-1.76-1.77A1.79,1.79,0,0,0,122.27,294.94Z" style="fill:#fff"/><path d="M129.25,288.73h2.28V300h-2.28Z" style="fill:#fff"/><path d="M140.71,297.44c-.25,1.63-1.77,2.71-3.82,2.71-2.56,0-4.12-1.63-4.12-4.3s1.57-4.37,4-4.37,4,1.62,4,4.16v.7H135v.14a1.85,1.85,0,0,0,1.92,2,1.67,1.67,0,0,0,1.69-1Zm-5.68-2.5h3.55a1.72,1.72,0,0,0-1.76-1.77A1.79,1.79,0,0,0,135,294.94Z" style="fill:#fff"/><path d="M142,291.63h2.2v1.51h0a2,2,0,0,1,2-1.61,2.1,2.1,0,0,1,.65.09v2a2.35,2.35,0,0,0-.83-.13,1.67,1.67,0,0,0-1.78,1.87V300H142Z" style="fill:#fff"/></svg>