<svg id="Layer_1" data-name="Layer 1" xmlns="http://www.w3.org/2000/svg" viewBox="0 0 300 400"><title>dont-make-me-think</title><rect width="300" height="400" style="fill:#9e051a"/><path d="M78.71,96.59c12.44,0,19.75,7.07,19.75,20.2s-7.33,20.8-19.75,20.8H61.18v-41ZM73.22,128H77c6,0,9.18-3.67,9.18-11.22,0-6.9-3.41-10.63-9.18-10.63H73.22Z" style="fill:#fff"/><path d="M143.45,117.1c0,13.1-8,21.2-20.66,21.2s-20.66-8.1-20.66-21.2,8-21.22,20.66-21.22S143.45,104,143.45,117.1Zm-29,0c0,7.07,3.32,11.59,8.38,11.59s8.38-4.52,8.38-11.59-3.35-11.62-8.38-11.62S114.41,110,114.41,117.1Z" style="fill:#fff"/><path d="M148.13,137.58v-41h9.35l15.83,21.25h.23V96.59H184.9v41h-9.23L159.72,116h-.23v21.59Z" style="fill:#fff"/><path d="M190.57,114.12l2.22-17.53H203.3l-3.58,17.53Z" style="fill:#fff"/><path d="M218.22,137.58V106.16h-10.8V96.59h33.64v9.58h-10.8v31.42Z" style="fill:#fff"/><path d="M103.44,194.49V170.74h-.23L94,194H87.53l-9.23-23.27h-.23v23.75H67.55v-41H81.48l9.18,23.92h.23L100,153.49H114v41Z" style="fill:#fff"/><path d="M144.54,186.34H132l-2.13,8.15H117.64l13.38-41h15.12l13.38,41H146.67Zm-10.31-8.5h8.13L138.41,163h-.23Z" style="fill:#fff"/><path d="M163.2,194.49v-41h12v17.39h.23l12.67-17.39h12.64L187.3,171.7l14.12,22.79h-14l-8.95-15.06-3.21,4.32v10.74Z" style="fill:#fff"/><path d="M233.17,194.49H204.25v-41h28.92v9.58H216.3v6.62h15.83v8.64H216.3v6.59h16.88Z" style="fill:#fff"/><path d="M145.75,251.39V227.64h-.23l-9.23,23.27h-6.45l-9.23-23.27h-.23v23.75H109.87v-41h13.92L133,234.32h.23l9.15-23.92h13.92v41Z" style="fill:#fff"/><path d="M190.86,251.39H161.94v-41h28.92V220H174v6.62h15.83v8.64H174v6.59h16.88Z" style="fill:#fff"/><path d="M71.6,308.3V276.88H60.81V267.3H94.45v9.57H83.65V308.3Z" style="fill:#fff"/><path d="M125,308.3V292.45H110.61V308.3h-12v-41h12v15.57H125V267.3h12v41Z" style="fill:#fff"/><path d="M142.76,308.3v-41h12v41Z" style="fill:#fff"/><path d="M160.49,308.3v-41h9.35l15.83,21.25h.23V267.3h11.37v41H188l-15.94-21.59h-.23V308.3Z" style="fill:#fff"/><path d="M202.93,308.3v-41h12v17.39h.23l12.67-17.39h12.64L227,285.51l14.12,22.79h-14l-8.95-15.06L215,297.56V308.3Z" style="fill:#fff"/><path d="M178.95,333.6a26.24,26.24,0,0,0,3.19,4.1l-2.95,1.91a41,41,0,0,1-3.92-6.29A46.69,46.69,0,0,0,172.5,339l-2.5-2.3a49.79,49.79,0,0,1,2.66-5.21,43,43,0,0,1,4-5.6,16.33,16.33,0,0,0-2.77-.27l1-2.64a27.61,27.61,0,0,1,7.24,1.08,22.33,22.33,0,0,1,2.33.86l1.73,3.81A15.93,15.93,0,0,1,178.95,333.6Zm-2.79-1.77a22.14,22.14,0,0,0,5.36-2.9,10.18,10.18,0,0,0,1.37-1.17,20.4,20.4,0,0,0-5.58-1.77l1.91,1.55A51.74,51.74,0,0,0,176.16,331.83Z" style="fill:#ffd300"/><path d="M190.93,334a6.81,6.81,0,0,1-1.64-.16,7,7,0,0,0-.44,2.15,22.25,22.25,0,0,0,7.35-1.71,16.63,16.63,0,0,0,2.3-1.15l.46,2.24a24.12,24.12,0,0,1-4.87,2.3,19.87,19.87,0,0,1-5.65,1.2l-2.75-2.55a9.94,9.94,0,0,1,1.66-5.58,10.23,10.23,0,0,1,2.71-2.77,11.6,11.6,0,0,1,2.91-1.46l3.74,3.1a5.32,5.32,0,0,1-2.1,3.34A6.48,6.48,0,0,1,190.93,334Zm-.71-2.15a3.65,3.65,0,0,0,2.24-.71,2.78,2.78,0,0,0,1.11-2.35A8.54,8.54,0,0,0,190.22,331.89Z" style="fill:#ffd300"/><path d="M204.56,336a17.75,17.75,0,0,1-4.25,2.88l-2.95-2.55a20.41,20.41,0,0,1,1.08-4,48.14,48.14,0,0,1,2.77-5.87l2.44,1.66a29.17,29.17,0,0,0-1.82,3.68,27.14,27.14,0,0,0-1.15,3.72q2.08-1,5.34-5.67,1-1.4,1.84-2.9l2.55,1.66a37.86,37.86,0,0,1-4.08,5.63,17.71,17.71,0,0,0,3-.46q1.73-.4,2.37-.6l.49,2.24a25.46,25.46,0,0,1-4.92,1.88q-.82.22-1.4.33Z" style="fill:#ffd300"/><path d="M213.66,335.53a32.42,32.42,0,0,0,5.43-2.35l.47,2.24a36.39,36.39,0,0,1-5.18,2.73q-1,.44-2,.77l-2.55-2.35a40.71,40.71,0,0,1,3.9-7.4,25.63,25.63,0,0,1,1.64-2.33l2.19,1.62a35.66,35.66,0,0,0-3.15,5.34Q214,334.73,213.66,335.53Zm3.34-9.75a1.79,1.79,0,0,1-.51-1.28,1.8,1.8,0,1,1,1.79,1.79A1.79,1.79,0,0,1,217,325.78Z" style="fill:#ffd300"/><path d="M222,339.09q-1.6-1.06-2.79-2t-2.37-2.28l2.28-1.62a21.76,21.76,0,0,0,2.28,2.16q.73.54,1.31.92a16.24,16.24,0,0,0,2-.42L221,332.36a7.82,7.82,0,0,1-.8-1,13.24,13.24,0,0,1,6.58-5.14l3.54,2.86a17.46,17.46,0,0,1-1.77,4l-2.37-1.77a9.65,9.65,0,0,0,.82-1.48,8.33,8.33,0,0,0,.42-1.06,7.93,7.93,0,0,0-2.55,1.68,9.64,9.64,0,0,0-.84.91,6.27,6.27,0,0,0,1.28,1.35q1.46,1.26,2.46,2.17a30.68,30.68,0,0,0,4.16-1.73l.47,2.24a19.47,19.47,0,0,1-5,2.35A29.62,29.62,0,0,1,222,339.09Z" style="fill:#ffd300"/><path d="M237.36,328.53a21.3,21.3,0,0,0,3-.49l.51,2.39a23.84,23.84,0,0,1-5,.58,30.74,30.74,0,0,0-2,4.83,35.89,35.89,0,0,0,3.83-.9,18.77,18.77,0,0,0,4.1-1.76l.46,2.24a21.78,21.78,0,0,1-4.61,2.39,15.85,15.85,0,0,1-4.52,1.11l-2.75-2.55a35.75,35.75,0,0,1,4.45-9.15q1-1.51,2.08-2.9l2,1.82Q238.09,327.33,237.36,328.53Z" style="fill:#ffd300"/><path d="M246.2,334a6.81,6.81,0,0,1-1.64-.16,7,7,0,0,0-.44,2.15,22.25,22.25,0,0,0,7.35-1.71,16.63,16.63,0,0,0,2.3-1.15l.46,2.24a24.12,24.12,0,0,1-4.87,2.3,19.87,19.87,0,0,1-5.65,1.2L241,336.37a9.94,9.94,0,0,1,1.66-5.58,10.23,10.23,0,0,1,2.71-2.77,11.6,11.6,0,0,1,2.91-1.46l3.74,3.1a5.32,5.32,0,0,1-2.1,3.34A6.48,6.48,0,0,1,246.2,334Zm-.71-2.15a3.65,3.65,0,0,0,2.24-.71,2.78,2.78,0,0,0,1.11-2.35A8.54,8.54,0,0,0,245.49,331.89Z" style="fill:#ffd300"/><path d="M259.69,336.92a11.21,11.21,0,0,1-4,2l-2.75-2.55a11.33,11.33,0,0,1,.53-3.43,9.73,9.73,0,0,1,1.57-3,8.82,8.82,0,0,1,2.58-2.25,8.43,8.43,0,0,1,3.56-1.07l1.22,1.86A44.4,44.4,0,0,1,266,322.5l2.15,1.86a40.08,40.08,0,0,0-4.54,7.93q-.71,1.55-1.26,3a25,25,0,0,0,5-2.15l.49,2.24a32.11,32.11,0,0,1-4.87,2.77q-1,.44-1.53.64Zm-3.68-1.2a8.33,8.33,0,0,0,4.32-3.15,12,12,0,0,0,.86-3.15,5.32,5.32,0,0,0-3.74,2A6.56,6.56,0,0,0,256,335.73Z" style="fill:#ffd300"/><path d="M100.67,37.09c-.38-2.88-1.94-4.2-4-4.2s-3.07,1-3.07,2.76c0,2,1.7,3,3.43,3.72,2.4,1,4.73,2.52,4.73,5.16,0,2.88-2.11,4.8-5.33,4.8a10.68,10.68,0,0,1-4.87-1.2l-.24-4.2h.6c.36,4,2.71,4.56,4.51,4.56a3.08,3.08,0,0,0,3.29-3.38c0-2.21-2.09-3.17-3.89-3.94-2.42-1-4.27-2.4-4.27-4.85S93.35,32,96.64,32A9.43,9.43,0,0,1,101,33.13l.24,4Z" style="fill:#fff"/><path d="M107.27,46.21c0,1.56,1,1.68,1.92,1.68a10.56,10.56,0,0,0,2.4-.36v.36a6.39,6.39,0,0,1-3.84,1.44c-1.68,0-2.4-.84-2.4-2.88V37.93h-1.68v-.72l1.68-.36,1.44-3.36h.48v3.6h3.6v.84h-3.6Z" style="fill:#fff"/><path d="M113,43.21c0-4.08,2.88-6.36,5.88-6.36,2.28,0,4.78,1.2,4.06,5.16H114.9c-.17,3.31,1.56,5.76,4.37,5.76a7.52,7.52,0,0,0,3.84-1v.72a6.69,6.69,0,0,1-4.44,1.8C115.09,49.33,113,46.45,113,43.21Zm2-2h5.93c.6-2.52-.58-3.6-2.14-3.6C116.72,37.57,115.36,39,115,41.17Z" style="fill:#fff"/><path d="M126.11,39c-.36-.79-.6-1.08-1.8-1.44v-.48h5.76v.48c-1.92.24-1.94,1-1.44,2.16l3,7.2h0l2.74-7.2c.46-1.22,0-1.92-1.68-2.16v-.48h4.8v.48c-1.18.24-1.54.48-1.92,1.44l-3.84,9.72-.72.48h-.48Z" style="fill:#fff"/><path d="M138.23,43.21c0-4.08,2.88-6.36,5.88-6.36,2.28,0,4.78,1.2,4.06,5.16H140.1c-.17,3.31,1.56,5.76,4.37,5.76a7.52,7.52,0,0,0,3.84-1v.72a6.69,6.69,0,0,1-4.44,1.8C140.29,49.33,138.23,46.45,138.23,43.21Zm2-2h5.93c.6-2.52-.58-3.6-2.14-3.6C141.92,37.57,140.56,39,140.2,41.17Z" style="fill:#fff"/><path d="M165.59,35.29c.77-1,1.2-2.28-.86-2.52v-.48h6v.48a5.16,5.16,0,0,0-3.58,1.92l-4.32,5.4,5.28,6.12a6.3,6.3,0,0,0,3.58,2.4v.48h-7v-.48c1.92-.24,1.75-1.25.86-2.28L161.87,42c-.84-1-1.08-1.08-2-1.08v5.76c0,1.32.24,1.68,2.16,1.92v.48h-6.24v-.48c1.92-.24,2.16-.6,2.16-1.92v-12c0-1.32-.24-1.68-2.16-1.92v-.48H162v.48c-1.92.24-2.16.6-2.16,1.92v5.52a2.88,2.88,0,0,0,2.76-1.2Z" style="fill:#fff"/><path d="M181.16,39c-1.39-.6-2.76,0-4,1.32v6.36c0,1.32.24,1.68,2.16,1.92v.48h-6.24v-.48c1.92-.24,2.16-.6,2.16-1.92V40.21c0-1.2-.24-1.56-1.92-1.8v-.48l3.72-1.08h.19l-.07,2.76h0c.91-1.32,2.35-2.76,3.79-2.76C183.08,36.85,182.44,39.56,181.16,39Z" style="fill:#fff"/><path d="M192.68,46.81h0c-1.39,1.44-2.64,2.52-4.39,2.52s-3-1-3-3.6V39.37c0-1.2-.24-1.56-1.92-1.8v-.48h3.84v8.64c0,1.32.58,2.16,1.8,2.16s2-.36,3.72-1.8V39.37c0-1.2-.24-1.56-2.16-1.8v-.48h4.08V46c0,1.68.84,1.68,2.4,1.56v.6l-4.08,1.2h-.24Z" style="fill:#fff"/><path d="M207,38.57a3.74,3.74,0,0,1,1,2.59c0,2.76-1.92,4.44-4.68,4.44a7.08,7.08,0,0,1-1.68-.24c-.46.53-.89.94-.89,1.49s.58.82,1.49.91l3.82.36c2,.19,3.5,1.2,3.5,2.88,0,3-4.08,4.56-7.44,4.56-3,0-4.32-.84-4.32-2.4s1.13-2.62,2.76-3.84a1.8,1.8,0,0,1-1.68-1.68c0-.84.74-1.61,2.16-2.52a4.08,4.08,0,0,1-2.52-3.89c0-2.59,2-4.39,4.8-4.39a7.37,7.37,0,0,1,3,.72l3.24-.36v1.32H207Zm-6,10.87a4.77,4.77,0,0,0-1.32,3.24c0,1.32,1.2,2.16,3.12,2.16s4.8-1,4.8-3.12c0-1.2-1.2-1.58-2.88-1.8Zm2.4-4.56c1.92,0,2.64-1.66,2.52-3.7s-1.13-3.62-2.76-3.62-2.81,1.49-2.64,3.72S201.8,44.89,203.36,44.89Z" style="fill:#fff"/></svg>