<svg id="ordering-disorder" xmlns="http://www.w3.org/2000/svg" viewBox="0 0 300 400"><title>ordering-disorder</title><rect width="300" height="400" style="fill:#fff"/><rect x="17" y="15.67" width="266" height="368.67" style="fill:#3482b7"/><polygon points="283 109.39 283 72.61 226.05 15.67 189.28 15.67 283 109.39" style="fill:#246b93"/><polygon points="95.28 15.67 17 15.67 17 384.33 283 384.33 283 203.38 95.28 15.67" style="fill:none"/><polygon points="283 15.67 132.05 15.67 283 166.62 283 15.67" style="fill:none"/><polygon points="283 166.62 132.05 15.67 95.28 15.67 283 203.38 283 166.62" style="fill:#246b93"/><polygon points="17 31.39 17 384.33 283 384.33 283 297.38 17 31.39" style="fill:none"/><polygon points="283 15.67 38.05 15.67 283 260.62 283 15.67" style="fill:none"/><polygon points="283 260.62 38.05 15.67 17 15.67 17 31.39 283 297.38 283 260.62" style="fill:#246b93"/><polygon points="17 125.39 17 384.33 275.95 384.33 17 125.39" style="fill:none"/><polygon points="283 15.67 17 15.67 17 88.61 283 354.62 283 15.67" style="fill:none"/><polygon points="283 384.33 283 354.62 17 88.61 17 125.39 275.95 384.33 283 384.33" style="fill:#246b93"/><polygon points="17 219.38 17 384.33 181.95 384.33 17 219.38" style="fill:none"/><polygon points="283 384.33 283 15.67 17 15.67 17 182.62 218.72 384.33 283 384.33" style="fill:none"/><polygon points="218.72 384.33 17 182.62 17 219.38 181.95 384.33 218.72 384.33" style="fill:#246b93"/><polygon points="17 15.67 17 276.62 124.72 384.33 283 384.33 283 15.67 17 15.67" style="fill:none"/><polygon points="17 384.33 87.95 384.33 17 313.38 17 384.33" style="fill:none"/><polygon points="17 313.38 87.95 384.33 124.72 384.33 17 276.62 17 313.38" style="fill:#246b93"/><rect x="46.43" y="60" width="207.13" height="207.13" style="fill:#15a9fc"/><rect x="46.43" y="271.95" width="207.13" height="71.05" style="fill:#15a9fc"/><text transform="translate(61 92)" style="font-size:20px;fill:#fff;font-family:PFDinDisplayPro-Bold, PF DinDisplay Pro;font-weight:700">Ordering Disorder</text><text transform="translate(61 299)" style="font-size:20px;fill:#fff;font-family:PFDinDisplayPro-Bold, PF DinDisplay Pro;font-weight:700">Khoi <tspan x="43.98" y="0" style="letter-spacing:-0.019970703125em">V</tspan><tspan x="55.66" y="0">inh</tspan></text><text transform="translate(61 122)" style="font-size:20px;fill:#fff;font-family:PFDinDisplayPro-Regular, PF DinDisplay Pro">Grid Principles<tspan x="0" y="24.08" style="letter-spacing:-0.0199951171875em">f</tspan><tspan x="5.66" y="24.08">or </tspan><tspan x="27.2" y="24.08" style="letter-spacing:-0.02998046875em">W</tspan><tspan x="43.84" y="24.08">eb Design</tspan></text></svg>