<svg id="Layer_5" data-name="Layer 5" xmlns="http://www.w3.org/2000/svg" viewBox="0 0 300 400"><title>pretty-much-everything</title><rect width="300" height="400" style="fill:#21211f"/><text transform="translate(21.33 54)" style="font-size:18px;fill:#fff;font-family:BioRhyme-Bold, BioRhyme;font-weight:700;letter-spacing:0.044976128472222224em">D<tspan x="15.52" y="0" style="letter-spacing:0.027994791666666668em">r</tspan><tspan x="26.06" y="0" style="letter-spacing:0.030056423611111112em">a</tspan><tspan x="37.55" y="0" style="letter-spacing:0.03298611111111111em">p</tspan><tspan x="50.29" y="0" style="letter-spacing:0.039984809027777776em">lin D</tspan><tspan x="100.15" y="0" style="letter-spacing:0.03797743055555555em">es</tspan><tspan x="121.21" y="0" style="letter-spacing:0.034993489583333336em">i</tspan><tspan x="128.36" y="0" style="letter-spacing:0.0400390625em">gn </tspan><tspan x="159.44" y="0" style="letter-spacing:0.03200954861111111em">C</tspan><tspan x="173.64" y="0" style="letter-spacing:0.019965277777777776em">o</tspan><tspan x="184.79" y="0" style="letter-spacing:0.0400390625em">.</tspan></text><text transform="translate(21.33 83)" style="font-size:18px;fill:#ff6c00;font-family:BioRhyme-Bold, BioRhyme;font-weight:700;letter-spacing:0.039984809027777776em">P<tspan x="13.97" y="0" style="letter-spacing:0.023003472222222224em">r</tspan><tspan x="24.43" y="0" style="letter-spacing:0.03298611111111111em">e</tspan><tspan x="35.17" y="0" style="letter-spacing:0.011990017361111112em">t</tspan><tspan x="43.38" y="0" style="letter-spacing:0.007975260416666666em">t</tspan><tspan x="51.52" y="0" style="letter-spacing:0.0400390625em">y </tspan><tspan x="70.11" y="0" style="letter-spacing:0.025010850694444444em">M</tspan><tspan x="90.5" y="0" style="letter-spacing:0.03504774305555555em">u</tspan><tspan x="103.27" y="0" style="letter-spacing:0.026963975694444444em">c</tspan><tspan x="113.45" y="0">h </tspan><tspan x="133.34" y="0" style="letter-spacing:0.005967881944444444em">E</tspan><tspan x="147.81" y="0" style="letter-spacing:0.01904296875em">v</tspan><tspan x="159.82" y="0" style="letter-spacing:0.03993055555555555em">e</tspan><tspan x="170.69" y="0" style="letter-spacing:0.017035590277777776em">r</tspan><tspan x="181.04" y="0" style="letter-spacing:0.028049045138888888em">y</tspan><tspan x="193.32" y="0" style="letter-spacing:0.03298611111111111em">t</tspan><tspan x="201.91" y="0" style="letter-spacing:0.03993055555555555em">hi</tspan><tspan x="222.93" y="0" style="letter-spacing:0.034993489583333336em">n</tspan><tspan x="236.81" y="0">g</tspan></text><text transform="translate(21.33 111)" style="font-size:18px;fill:#595959;font-family:BioRhyme-Bold, BioRhyme;font-weight:700;letter-spacing:0.030978732638888888em">A<tspan x="15.71" y="0" style="letter-spacing:0.0400390625em">a</tspan><tspan x="27.38" y="0" style="letter-spacing:0.023003472222222224em">r</tspan><tspan x="37.84" y="0" style="letter-spacing:0.039984809027777776em">on </tspan><tspan x="69.41" y="0" style="letter-spacing:0.0030381944444444445em">J</tspan><tspan x="79.74" y="0" style="letter-spacing:0.039984809027777776em">a</tspan><tspan x="91.4" y="0" style="letter-spacing:0.03504774305555555em">m</tspan><tspan x="111.26" y="0" style="letter-spacing:0.03797743055555555em">e</tspan><tspan x="122.09" y="0" style="letter-spacing:0.039984809027777776em">s </tspan><tspan x="138.46" y="0" style="letter-spacing:0.044976128472222224em">D</tspan><tspan x="153.97" y="0" style="letter-spacing:0.028049045138888888em">r</tspan><tspan x="164.52" y="0" style="letter-spacing:0.030002170138888888em">a</tspan><tspan x="176" y="0" style="letter-spacing:0.033040364583333336em">p</tspan><tspan x="188.75" y="0" style="letter-spacing:0.039984809027777776em">lin</tspan></text><path d="M277.67,29.73v-7a1.69,1.69,0,0,0-1.07-1.57l-10.15-4a1.69,1.69,0,0,0-1.23,0l-10.15,4A1.69,1.69,0,0,0,254,22.78v7a1.69,1.69,0,0,0,1.07,1.57l10.15,4a1.69,1.69,0,0,0,1.23,0l10.15-4A1.69,1.69,0,0,0,277.67,29.73Z" style="fill:#ff6c00"/><rect x="18" y="144" width="108" height="108" style="fill:#ffcd00"/><rect x="180" y="261" width="108" height="108" style="fill:#f8a200"/><rect x="135" y="144" width="45" height="36" style="fill:#b92a26"/><rect x="135" y="189" width="45" height="63" style="fill:#00b32f"/><rect x="18" y="261" width="45" height="108" style="fill:#00b0e4"/><rect x="189" y="144" width="45" height="63" style="fill:#00b0e4"/><rect x="189" y="216" width="45" height="36" style="fill:#b8e010"/><rect x="243" y="144" width="45" height="36" style="fill:#fe6000"/><rect x="243" y="189" width="45" height="63" style="fill:#00b32f"/><rect x="72" y="261" width="45" height="63" style="fill:#fe6000"/><rect x="72" y="333" width="45" height="36" style="fill:#b92a26"/><rect x="126" y="261" width="45" height="36" style="fill:#b8e010"/><rect x="126" y="306" width="45" height="63" style="fill:#00b0e4"/></svg>