<svg id="Layer_3" data-name="Layer 3" xmlns="http://www.w3.org/2000/svg" viewBox="0 0 300 400"><title>show-your-work</title><rect width="300" height="400" style="fill:#ffd200"/><text transform="translate(33.06 93.69)" style="font-size:65.1677474975586px;fill:#241f20;font-family:ChalkboardSE-Regular, Chalkboard SE">SH<tspan x="78.85" y="0" style="letter-spacing:0.001093931664627057em">O</tspan><tspan x="126.23" y="0">W</tspan><tspan x="0" y="84.46" style="letter-spacing:-0.04971394927945564em">Y</tspan><tspan x="35" y="84.46" style="letter-spacing:-0.02540019413072413em">O</tspan><tspan x="80.65" y="84.46" style="letter-spacing:0.0220809357236708em">U</tspan><tspan x="124.93" y="84.46">R</tspan><tspan x="0" y="168.92" style="letter-spacing:-0.017667745651990415em">W</tspan><tspan x="63.22" y="168.92">ORK!</tspan></text><circle cx="245" cy="147" r="32.06" transform="translate(47.45 353.42) rotate(-77.22)" style="fill:#241f20"/><text transform="translate(80.57 365.67)" style="font-size:20px;font-family:ChalkboardSE-Regular, Chalkboard SE"><tspan style="letter-spacing:-0.038671875em">A</tspan><tspan x="12.13" y="0" style="letter-spacing:0.0000244140625em">USTIN KL</tspan><tspan x="100.11" y="0" style="letter-spacing:-0.0254150390625em">E</tspan><tspan x="110.54" y="0">ON</tspan></text><rect x="225.34" y="142.31" width="40.38" height="4.75" rx="2.38" ry="2.38" transform="translate(38.08 -50.72) rotate(12.78)" style="fill:#fff;opacity:0.79"/><rect x="222.71" y="153.89" width="40.38" height="4.75" rx="2.38" ry="2.38" transform="translate(40.58 -49.85) rotate(12.78)" style="fill:#ffd200"/><rect x="236.58" y="130.73" width="23.14" height="4.75" rx="2.38" ry="2.38" transform="translate(35.58 -51.59) rotate(12.78)" style="fill:#fff;opacity:0.79"/></svg>