<svg id="Layer_7" data-name="Layer 7" xmlns="http://www.w3.org/2000/svg" viewBox="0 0 300 400"><title>symbol-book</title><rect width="300" height="400" style="fill:#ff7d00"/><path d="M30.67,229.55v-7.74c.31,0,1.82.07,2.17.07,3.68,0,5.81-1.24,6.53-4.09l.38-1.55-12.9-37.11h11L45.73,208h.17l7.84-28.82H64.34L51.65,216.83c-3.16,9.49-7.84,12.83-17.2,12.83C34.11,229.65,31,229.62,30.67,229.55Z" style="fill:#fff"/><path d="M68,179.13h9.7v6.74h.21a10.81,10.81,0,0,1,10.52-7.29c5.33,0,9,2.75,10.28,7.57h.21c1.65-4.64,6.05-7.57,11.45-7.57,7.22,0,12.07,5,12.07,12.38v25h-10V193.47c0-4.26-2.13-6.6-6-6.6s-6.33,2.79-6.33,6.88V216H90.38V193.16c0-4-2.24-6.29-5.95-6.29s-6.4,2.89-6.4,7V216H68Z" style="fill:#fff"/><path d="M139.15,209.67h-.21V216H129V166.37h10v19.09h.21c2-4.3,6.12-6.78,11.38-6.78,9.29,0,15,7.12,15,18.88s-5.67,18.88-15,18.88C145.31,216.45,141.18,214,139.15,209.67Zm-.1-12.11c0,6.53,3.27,10.8,8.19,10.8s8.15-4.23,8.15-10.8-3.23-10.8-8.15-10.8S139,191.1,139,197.57Z" style="fill:#fff"/><path d="M169.52,197.53c0-11.8,7.12-19.05,18.26-19.05S206,185.7,206,197.53c0,12-7,19.12-18.26,19.12S169.52,209.5,169.52,197.53Zm26.31,0c0-7.19-3-11.42-8-11.42s-8.08,4.26-8.08,11.42,3,11.42,8.08,11.42S195.83,204.82,195.83,197.57Z" style="fill:#fff"/><path d="M211.45,166.37h10V216h-10Z" style="fill:#fff"/><polygon points="253.52 141.51 251.57 139.23 244.5 145.25 244.5 137 241.5 137 241.5 145.25 234.43 139.23 232.48 141.51 240.69 148.5 232.48 155.49 234.43 157.77 241.5 151.75 241.5 160 244.5 160 244.5 151.75 251.57 157.77 253.52 155.49 245.31 148.5 253.52 141.51" style="fill:#fff"/><path d="M0,174.43a12.42,12.42,0,0,1,4.39-.73c5.19,0,8.87,2.54,9.22,6.74h9.73c-.17-9-7.43-14.93-19-14.93a27.77,27.77,0,0,0-4.36.34Z" style="fill:#fff"/><path d="M10,187.18l-6-1.27A26.46,26.46,0,0,1,0,184.72v10.06L5.49,196c6,1.34,8.36,3.13,8.36,6.36,0,3.65-3.78,6.29-9.32,6.29A14.54,14.54,0,0,1,0,208v8.66a33.6,33.6,0,0,0,4.11.25c12.31,0,20.12-6.09,20.12-15.72C24.23,193.58,19.9,189.31,10,187.18Z" style="fill:#fff"/></svg>