<svg id="Layer_9" data-name="Layer 9" xmlns="http://www.w3.org/2000/svg" viewBox="0 0 300 400"><title>the-anatomy-of-type</title><rect width="300" height="400" style="fill:#fff"/><path d="M46,29.21v8.85H41.85V33H35.49v17.2h4.34V54H26.35V50.21h4.34V33H24.25v5.06H20.06V29.21Z"/><path d="M73.12,50.42V54H62.53V50.42h2.93V44.53a4.3,4.3,0,0,0-.92-2.91,3.28,3.28,0,0,0-2.62-1.07q-2.64,0-5.78,3.65v6.22h2.93V54H48V50.42h3.61V32.78H48V29.21h8.13V40.74a15,15,0,0,1,3.7-3.18,7.9,7.9,0,0,1,4-1,5.49,5.49,0,0,1,4.63,2q1.55,2,1.55,5.95v5.93Z"/><path d="M92.56,51.4a12.42,12.42,0,0,1-8.35,3.11,11.34,11.34,0,0,1-4.75-1,8.74,8.74,0,0,1-3.6-3,7.89,7.89,0,0,1-1.37-4.66,8.85,8.85,0,0,1,1.37-4.93,9.3,9.3,0,0,1,3.65-3.27,10.55,10.55,0,0,1,4.84-1.16,10.89,10.89,0,0,1,4,.69,6.41,6.41,0,0,1,2.75,1.93,4.48,4.48,0,0,1,1,2.87,4.2,4.2,0,0,1-1,2.8,6,6,0,0,1-2.6,1.75,10.12,10.12,0,0,1-3.45.58,13.31,13.31,0,0,1-3.2-.36,20.62,20.62,0,0,1-3-1,4.56,4.56,0,0,0,1.63,3.63,6,6,0,0,0,3.94,1.32,9.73,9.73,0,0,0,6.29-2.28Zm-11-10.46a5.84,5.84,0,0,0-2.22,2.37,13.62,13.62,0,0,0,4.59.8,5.73,5.73,0,0,0,2.62-.58,1.67,1.67,0,0,0,1-1.52,1.64,1.64,0,0,0-.8-1.41,3.66,3.66,0,0,0-2.1-.54A5.88,5.88,0,0,0,81.59,40.93Z"/><path d="M134.63,50.21V54H122.38V50.21h3.79l-1.81-4.7H114.5l-1.81,4.7h4.16V54H104.78V50.21h3.4L115.51,33H112.4V29.21H126.9V33h-3.14l7.41,17.24Zm-11.57-8.1L119.52,33h-.18l-3.54,9.14Z"/><path d="M160.94,50.42V54H150.35V50.42h3V44.53a3.93,3.93,0,0,0-.92-2.75,3.36,3.36,0,0,0-2.62-1q-2.75,0-5.93,3.61v6h2.93V54H135.72V50.42h3.61V40.56h-3.61V37h8.13v3.9a16.45,16.45,0,0,1,3.74-3.27,7.39,7.39,0,0,1,3.85-1.07,5.77,5.77,0,0,1,4.75,2,9.22,9.22,0,0,1,1.64,5.93v5.93Z"/><path d="M182.92,53.53a4.67,4.67,0,0,1-1.34.54,7.3,7.3,0,0,1-1.84.22,3.88,3.88,0,0,1-2.4-.78,4,4,0,0,1-1.43-2.19q-3.58,3.18-7.08,3.18a6.4,6.4,0,0,1-4.19-1.39,5.43,5.43,0,0,1-.69-7.1,6.28,6.28,0,0,1,2.66-2,9.17,9.17,0,0,1,3.49-.67,12.64,12.64,0,0,1,2.89.31,17,17,0,0,1,2.67.89V43.23a2.38,2.38,0,0,0-1.17-2.17,5.68,5.68,0,0,0-3-.72,19,19,0,0,0-6.58,1.48l-.9-3.43a21,21,0,0,1,8.1-1.84,8.47,8.47,0,0,1,5.84,1.83,6.42,6.42,0,0,1,2,5v5.71q0,1.41,1,1.41a2.55,2.55,0,0,0,1-.22ZM168.17,50.3a3.41,3.41,0,0,0,1.88.49,7.18,7.18,0,0,0,2.53-.58,13.19,13.19,0,0,0,3.07-1.77v-1a13.22,13.22,0,0,0-4.7-.83,5.5,5.5,0,0,0-2.51.6,1.78,1.78,0,0,0-1,1.64A1.59,1.59,0,0,0,168.17,50.3Z"/><path d="M198.86,52.7a12.41,12.41,0,0,1-2.67,1.3,9.58,9.58,0,0,1-3.11.47,6.17,6.17,0,0,1-4.79-1.92,7.57,7.57,0,0,1-1.75-5.31V40.56H183V37h3.58V32.24H191V37h5.21v3.58H191v6.72a3.52,3.52,0,0,0,.72,2.4,2.61,2.61,0,0,0,2.06.81,4.93,4.93,0,0,0,1.7-.29,10.7,10.7,0,0,0,1.77-.87Z"/><path d="M204.21,53.39a9,9,0,0,1-3.54-3.18,8.92,8.92,0,0,1,0-9.4,9,9,0,0,1,3.54-3.18,10.45,10.45,0,0,1,9.42,0,9.13,9.13,0,0,1,3.58,3.18,8.36,8.36,0,0,1,1.36,4.7,8.53,8.53,0,0,1-1.32,4.7,8.89,8.89,0,0,1-3.52,3.18,10.64,10.64,0,0,1-9.5,0Zm8.26-3.94a5.52,5.52,0,0,0,1.39-3.94,5.52,5.52,0,0,0-1.39-3.94,4.89,4.89,0,0,0-7,0,5.52,5.52,0,0,0-1.39,3.94,5.52,5.52,0,0,0,1.39,3.94,4.89,4.89,0,0,0,7,0Z"/><path d="M258,50.42V54H247.5V50.42h2.86V44.31a4,4,0,0,0-.78-2.57,2.68,2.68,0,0,0-2.22-1q-2.71,0-5.38,3.25v6.4h2.86V54H234.49V50.42h3V44.31a3.94,3.94,0,0,0-.79-2.57,2.77,2.77,0,0,0-2.28-1,5.22,5.22,0,0,0-2.73.85,10.88,10.88,0,0,0-2.73,2.51v6.29h2.93V54H220.79V50.42h3.61V40.56h-3.61V37h8.13v3.51a11.39,11.39,0,0,1,3.33-2.93,7.66,7.66,0,0,1,3.79-1,5.48,5.48,0,0,1,3.49,1.12,6.16,6.16,0,0,1,2,3.25A12.18,12.18,0,0,1,245,37.68a7.55,7.55,0,0,1,4-1.14,5.21,5.21,0,0,1,4.32,2,9,9,0,0,1,1.57,5.71v6.18Z"/><path d="M280.36,40.56h-2.28l-6.79,14.85a16.12,16.12,0,0,1-3.71,5.44,6.94,6.94,0,0,1-4.72,1.75,7.21,7.21,0,0,1-2.64-.45,16.32,16.32,0,0,1-2.57-1.32l1.77-3.43a12,12,0,0,0,1.68.89,4.46,4.46,0,0,0,1.75.34,4.24,4.24,0,0,0,2.73-.94,8.29,8.29,0,0,0,2.15-3.11l0-.11-7.12-13.91H258.2V37h9.87v3.22h-2.64l4.41,9.65,4.23-9.65h-2.49V37h8.78Z"/><path d="M84.16,99.52a9,9,0,0,1-3.54-3.18,8.92,8.92,0,0,1,0-9.4,9,9,0,0,1,3.54-3.18,10.45,10.45,0,0,1,9.42,0,9.12,9.12,0,0,1,3.58,3.18,8.35,8.35,0,0,1,1.36,4.7,8.52,8.52,0,0,1-1.32,4.7,8.89,8.89,0,0,1-3.52,3.18,10.64,10.64,0,0,1-9.51,0Zm8.26-3.94a6.27,6.27,0,0,0,0-7.88,4.89,4.89,0,0,0-7,0,6.27,6.27,0,0,0,0,7.88,4.89,4.89,0,0,0,7,0Z"/><path d="M109.75,78.37a3.19,3.19,0,0,0-.94,2.35v2.39H114v3.58h-5.24v9.87h4.81v3.58H100.75V96.55h3.61V86.69h-3.61V83.11h3.61V80.83a6.93,6.93,0,0,1,2-5.26,7.42,7.42,0,0,1,5.35-1.93,11.3,11.3,0,0,1,3.07.4,21.64,21.64,0,0,1,3.07,1.16l-1.59,3.47a9.49,9.49,0,0,0-2-.92,6.61,6.61,0,0,0-2.06-.31A3.42,3.42,0,0,0,109.75,78.37Z"/><path d="M153.48,75.34v8.85h-4.19V79.13h-6.36v17.2h4.34v3.79H133.78V96.34h4.34V79.13h-6.43v5.06h-4.19V75.34Z"/><path d="M177.12,86.69h-2.28L168,101.54a16.12,16.12,0,0,1-3.71,5.44,6.94,6.94,0,0,1-4.72,1.75,7.21,7.21,0,0,1-2.64-.45,16.32,16.32,0,0,1-2.57-1.32l1.77-3.43a12,12,0,0,0,1.68.89,4.46,4.46,0,0,0,1.75.34,4.24,4.24,0,0,0,2.73-.94,8.29,8.29,0,0,0,2.15-3.11l0-.11-7.12-13.91H155V83.11h9.87v3.22h-2.64L166.6,96l4.23-9.65h-2.49V83.11h8.78Z"/><path d="M196.13,83.78A8.23,8.23,0,0,1,199,87a9.6,9.6,0,0,1,1.08,4.57,9.37,9.37,0,0,1-1.17,4.66,8.48,8.48,0,0,1-3.22,3.27,9,9,0,0,1-4.57,1.17,8.39,8.39,0,0,1-5.64-2.24v6H189V108h-11.6v-3.58h3.61V86.69h-3.61V83.11h8.06v3.25a11.21,11.21,0,0,1,3.16-2.73,7.07,7.07,0,0,1,7.46.14Zm-2.22,11.58a5.84,5.84,0,0,0,.2-7.5,4.23,4.23,0,0,0-3.33-1.43,5.13,5.13,0,0,0-2.71.85,9.76,9.76,0,0,0-2.57,2.4V95A7.39,7.39,0,0,0,190,96.84,5.21,5.21,0,0,0,193.91,95.36Z"/><path d="M220.6,97.53a12.42,12.42,0,0,1-8.35,3.11,11.34,11.34,0,0,1-4.75-1,8.73,8.73,0,0,1-3.6-3A7.89,7.89,0,0,1,202.52,92a8.85,8.85,0,0,1,1.37-4.93,9.29,9.29,0,0,1,3.65-3.27,10.55,10.55,0,0,1,4.84-1.16,10.89,10.89,0,0,1,4,.69,6.41,6.41,0,0,1,2.75,1.93,4.48,4.48,0,0,1,1,2.87,4.19,4.19,0,0,1-1,2.8,6,6,0,0,1-2.6,1.75,10.13,10.13,0,0,1-3.45.58,13.31,13.31,0,0,1-3.2-.36,20.66,20.66,0,0,1-3-1,4.56,4.56,0,0,0,1.63,3.63,6,6,0,0,0,3.94,1.32,9.74,9.74,0,0,0,6.29-2.28Zm-11-10.46a5.83,5.83,0,0,0-2.22,2.37,13.62,13.62,0,0,0,4.59.8,5.73,5.73,0,0,0,2.62-.58,1.67,1.67,0,0,0,1-1.52,1.64,1.64,0,0,0-.79-1.41,3.66,3.66,0,0,0-2.1-.54A5.88,5.88,0,0,0,209.63,87.07Z"/><path d="M208.81,144.24V196.8H181.53V175.27q-7.26,0-17.4,6.38a102.89,102.89,0,0,0-20.65,17.9v40.8h25.28v24.78H87.17V240.35h25V172h-25V147.24h56.32v27.53a113.37,113.37,0,0,1,26.41-22.28q13.89-8.26,26.41-8.26Z" style="fill:#ff201d"/><rect x="162" y="306" width="117" height="9" style="fill:#368979"/><rect x="189" y="324" width="90" height="9" style="fill:#368979"/><path d="M91.38,377a3.1,3.1,0,0,1,1.36,2.63,3.27,3.27,0,0,1-.58,1.94,3.71,3.71,0,0,1-1.61,1.26,5.84,5.84,0,0,1-2.32.44,7.08,7.08,0,0,1-4.74-2V383H81.25v-4.62l1.52-.1a7.82,7.82,0,0,0,2.5,2.16,5.85,5.85,0,0,0,2.8.81,2.64,2.64,0,0,0,1.45-.36,1.13,1.13,0,0,0,.56-1q0-.73-1-1.29a14.66,14.66,0,0,0-3.28-1.18,8.05,8.05,0,0,1-3.44-1.67,3.4,3.4,0,0,1-1.09-2.57,3.14,3.14,0,0,1,.61-1.91,4,4,0,0,1,1.6-1.28,5.13,5.13,0,0,1,2.15-.45,5.41,5.41,0,0,1,4.14,1.71v-1.45H92v4.53l-1.45.08a5.3,5.3,0,0,0-1.87-2.12,4.5,4.5,0,0,0-2.45-.73,3.1,3.1,0,0,0-1.67.4A1.24,1.24,0,0,0,84,373a1.44,1.44,0,0,0,.8,1.21,10.86,10.86,0,0,0,2.71,1A12.34,12.34,0,0,1,91.38,377Z" style="fill:#ff201d"/><path d="M102.22,382.31a6.67,6.67,0,0,1-1.43.69,5.1,5.1,0,0,1-1.66.25,3.29,3.29,0,0,1-2.55-1,4,4,0,0,1-.93-2.83v-3.57H93.74v-1.91h1.91V371.4h2.41v2.52h2.78v1.91H98.06v3.58a1.87,1.87,0,0,0,.39,1.28,1.39,1.39,0,0,0,1.1.43,2.64,2.64,0,0,0,.91-.15,5.71,5.71,0,0,0,.94-.46Z" style="fill:#ff201d"/><path d="M112.1,381.61a6.62,6.62,0,0,1-4.45,1.66,6,6,0,0,1-2.53-.54,4.65,4.65,0,0,1-1.92-1.58,4.21,4.21,0,0,1-.73-2.49,4.72,4.72,0,0,1,.73-2.63,5,5,0,0,1,1.95-1.74,5.62,5.62,0,0,1,2.58-.62,5.83,5.83,0,0,1,2.13.37,3.42,3.42,0,0,1,1.46,1,2.39,2.39,0,0,1,.53,1.53,2.24,2.24,0,0,1-.53,1.49,3.2,3.2,0,0,1-1.39.93,5.41,5.41,0,0,1-1.84.31,7.09,7.09,0,0,1-1.71-.19,10.92,10.92,0,0,1-1.61-.54,2.43,2.43,0,0,0,.87,1.94,3.18,3.18,0,0,0,2.1.7A5.19,5.19,0,0,0,111.1,380ZM106.26,376a3.11,3.11,0,0,0-1.19,1.26,7.28,7.28,0,0,0,2.45.42,3.06,3.06,0,0,0,1.4-.31.89.89,0,0,0,.53-.81.88.88,0,0,0-.42-.75,2,2,0,0,0-1.12-.29A3.14,3.14,0,0,0,106.26,376Z" style="fill:#ff201d"/><path d="M122.84,374.28a4.39,4.39,0,0,1,1.54,1.7,5.12,5.12,0,0,1,.58,2.44,5,5,0,0,1-.63,2.49,4.52,4.52,0,0,1-1.72,1.74,4.81,4.81,0,0,1-2.44.63,4.47,4.47,0,0,1-3-1.19v3.22h1.89v1.91h-6.19v-1.91h1.93v-9.46h-1.93v-1.91h4.3v1.73a6,6,0,0,1,1.69-1.46,3.77,3.77,0,0,1,4,.08Zm-1.19,6.18a3.12,3.12,0,0,0,.11-4,2.25,2.25,0,0,0-1.77-.76,2.74,2.74,0,0,0-1.45.45,5.21,5.21,0,0,0-1.37,1.28v2.85a3.94,3.94,0,0,0,2.41,1A2.78,2.78,0,0,0,121.65,380.46Z" style="fill:#ff201d"/><path d="M139.28,381.09V383h-5.65v-1.91h1.56V378a2.29,2.29,0,0,0-.49-1.55,1.75,1.75,0,0,0-1.4-.57q-1.41,0-3.08,1.95v3.31h1.56V383h-5.9v-1.91h1.93v-9.4h-1.93v-1.91h4.34v6.15a8,8,0,0,1,2-1.7,4.22,4.22,0,0,1,2.11-.54,2.93,2.93,0,0,1,2.47,1.07,5.12,5.12,0,0,1,.83,3.17v3.16Z" style="fill:#ff201d"/><path d="M149.65,381.61a6.62,6.62,0,0,1-4.45,1.66,6,6,0,0,1-2.53-.54,4.65,4.65,0,0,1-1.92-1.58,4.21,4.21,0,0,1-.73-2.49,4.72,4.72,0,0,1,.73-2.63,5,5,0,0,1,1.95-1.74,5.62,5.62,0,0,1,2.58-.62,5.83,5.83,0,0,1,2.13.37,3.42,3.42,0,0,1,1.46,1,2.39,2.39,0,0,1,.53,1.53,2.24,2.24,0,0,1-.53,1.49,3.2,3.2,0,0,1-1.39.93,5.41,5.41,0,0,1-1.84.31,7.09,7.09,0,0,1-1.71-.19,10.92,10.92,0,0,1-1.61-.54,2.43,2.43,0,0,0,.87,1.94,3.18,3.18,0,0,0,2.1.7,5.19,5.19,0,0,0,3.35-1.21ZM143.8,376a3.11,3.11,0,0,0-1.19,1.26,7.28,7.28,0,0,0,2.45.42,3.06,3.06,0,0,0,1.4-.31.89.89,0,0,0,.53-.81.88.88,0,0,0-.42-.75,2,2,0,0,0-1.12-.29A3.14,3.14,0,0,0,143.8,376Z" style="fill:#ff201d"/><path d="M164.24,381.09V383h-5.65v-1.91h1.58V378a2.09,2.09,0,0,0-.49-1.46,1.79,1.79,0,0,0-1.4-.54q-1.46,0-3.16,1.93v3.22h1.56V383h-5.9v-1.91h1.93v-5.26h-1.93v-1.91h4.34V376a8.79,8.79,0,0,1,2-1.74,3.94,3.94,0,0,1,2.05-.57,3.08,3.08,0,0,1,2.54,1.08,4.92,4.92,0,0,1,.88,3.16v3.16Z" style="fill:#ff201d"/><path d="M184.09,380a7.63,7.63,0,0,1-2.53,2.37,6.94,6.94,0,0,1-3.52.87,7.25,7.25,0,0,1-3.56-.89,6.66,6.66,0,0,1-3.48-5.94,7.21,7.21,0,0,1,.89-3.58,6.44,6.44,0,0,1,2.38-2.46,6.27,6.27,0,0,1,3.23-.88,5.25,5.25,0,0,1,4,1.66v-1.39h2.29v4.45l-1.66.15a5.15,5.15,0,0,0-1.66-2.08,4.34,4.34,0,0,0-2.62-.77,4,4,0,0,0-2.07.59,4.26,4.26,0,0,0-1.56,1.7,5.4,5.4,0,0,0-.59,2.57,5.12,5.12,0,0,0,.58,2.44,4.43,4.43,0,0,0,1.58,1.72,4.1,4.1,0,0,0,2.22.63,4.68,4.68,0,0,0,2.53-.65,6.4,6.4,0,0,0,1.86-1.86Z" style="fill:#ff201d"/><path d="M187.86,382.67A4.82,4.82,0,0,1,186,381a4.76,4.76,0,0,1,0-5,4.82,4.82,0,0,1,1.89-1.7,5.57,5.57,0,0,1,5,0,4.88,4.88,0,0,1,1.91,1.7,4.47,4.47,0,0,1,.72,2.5,4.55,4.55,0,0,1-.7,2.51,4.76,4.76,0,0,1-1.88,1.7,5.68,5.68,0,0,1-5.07,0Zm4.4-2.1a3.34,3.34,0,0,0,0-4.2,2.61,2.61,0,0,0-3.74,0,3.34,3.34,0,0,0,0,4.2,2.6,2.6,0,0,0,3.74,0Z" style="fill:#ff201d"/><path d="M202.72,381.09V383h-6.28v-1.91h1.93v-9.4h-1.93v-1.91h4.34v11.31Z" style="fill:#ff201d"/><path d="M213.13,381.61a6.62,6.62,0,0,1-4.45,1.66,6,6,0,0,1-2.53-.54,4.65,4.65,0,0,1-1.92-1.58,4.21,4.21,0,0,1-.73-2.49,4.72,4.72,0,0,1,.73-2.63,5,5,0,0,1,1.95-1.74,5.63,5.63,0,0,1,2.58-.62,5.83,5.83,0,0,1,2.13.37,3.42,3.42,0,0,1,1.46,1,2.39,2.39,0,0,1,.53,1.53,2.24,2.24,0,0,1-.53,1.49A3.2,3.2,0,0,1,211,379a5.4,5.4,0,0,1-1.84.31,7.08,7.08,0,0,1-1.71-.19,10.9,10.9,0,0,1-1.61-.54,2.43,2.43,0,0,0,.87,1.94,3.18,3.18,0,0,0,2.1.7,5.19,5.19,0,0,0,3.35-1.21ZM207.28,376a3.1,3.1,0,0,0-1.19,1.26,7.27,7.27,0,0,0,2.45.42,3.08,3.08,0,0,0,1.4-.31.89.89,0,0,0,.53-.81.88.88,0,0,0-.42-.75,2,2,0,0,0-1.12-.29A3.13,3.13,0,0,0,207.28,376Z" style="fill:#ff201d"/><path d="M222,378.7a2.4,2.4,0,0,1,.94,2,2.21,2.21,0,0,1-.44,1.35,2.88,2.88,0,0,1-1.21.92,4.35,4.35,0,0,1-1.71.33,5.43,5.43,0,0,1-1.83-.31,4.88,4.88,0,0,1-1.54-.89V383h-1.75v-3l1.06-.1a4.64,4.64,0,0,0,1.64,1.25,4.5,4.5,0,0,0,2,.52,1.84,1.84,0,0,0,1-.22.69.69,0,0,0,.35-.61.92.92,0,0,0-.55-.75,8.75,8.75,0,0,0-2-.71,7.24,7.24,0,0,1-2.62-1.2,2.31,2.31,0,0,1-.88-1.88,2.37,2.37,0,0,1,.4-1.34,2.81,2.81,0,0,1,1.14-1,3.83,3.83,0,0,1,1.7-.36,4.3,4.3,0,0,1,3,1.14v-.89h1.75v3l-1.06.1a3.74,3.74,0,0,0-1.34-1.29,3.42,3.42,0,0,0-1.71-.46,2,2,0,0,0-1,.23.68.68,0,0,0-.4.6q0,.4.53.7a9.71,9.71,0,0,0,1.86.68A7.68,7.68,0,0,1,222,378.7Z" style="fill:#ff201d"/><path d="M0,166.77a33.08,33.08,0,0,1,8.33-1q10.76,0,17.65,5.63a18.3,18.3,0,0,1,6.88,14.89A19.27,19.27,0,0,1,26,201.68q-6.89,5.88-17.65,5.88a34.5,34.5,0,0,1-8.33-1v22.34a80.68,80.68,0,0,0,8.08.4,70.69,70.69,0,0,0,26-5,51.71,51.71,0,0,0,21-14.77,34.87,34.87,0,0,0,8.26-23.28q0-18-15-29.78a25.16,25.16,0,0,1,10.89-6.38A60.21,60.21,0,0,1,74.41,148V122.46q-14.52.25-25,6.76T34.61,148.74A71.56,71.56,0,0,0,8.08,144a67.48,67.48,0,0,0-8.08.51Z" style="fill:#ff201d"/><path d="M65.9,249.49q-10.51-8.38-27.53-8.38-11.26,0-28.28,1.5-5.52.55-10.08.9V268q5.66-.46,11.84-1.16,14-1.5,19.52-1.5,8.51,0,12.51,2.25t4,7.76q0,8.26-13.77,13.39T1.57,293.91H0v25a134.11,134.11,0,0,0,37.12-5.46q18-5.51,28.66-15.77t10.64-24Q76.41,257.87,65.9,249.49Z" style="fill:#ff201d"/><path d="M287.16,170.52A48.17,48.17,0,0,1,300,172.11v-27.5c-2.75-.24-5.61-.38-8.59-.38q-25.78,0-56.07,12.77l6.26,23.78Q268.38,170.52,287.16,170.52Z" style="fill:#ff201d"/><path d="M300,236.62q-2.57,1.24-5.08,2.23-10.27,4-17.52,4a23.59,23.59,0,0,1-13-3.38,11,11,0,0,1-5.26-9.89q0-7.51,7.13-11.39t17.4-4.13A96.19,96.19,0,0,1,300,215.44V194.25q-1.17-.31-2.33-.58a87.4,87.4,0,0,0-20-2.13,63.53,63.53,0,0,0-24.15,4.63,43.54,43.54,0,0,0-18.4,13.64q-7,9-7,21.53,0,18,11.76,27.66t29,9.64q15.45,0,31.12-8.94Z" style="fill:#ff201d"/></svg>