<svg version="1.1" id="Layer_1" xmlns="http://www.w3.org/2000/svg" xmlns:xlink="http://www.w3.org/1999/xlink" x="0px" y="0px"
	 viewBox="0 0 50 50" style="enable-background:new 0 0 500 500;" xml:space="preserve">
	<path class="st0" d="M449.7,49c-28.3-28.3-65.9-43.9-106-43.9c-34.3,0-66.9,11.5-93.4,32.6C224,16.6,191.4,5.1,157,5.1
		C117,5.1,79.3,20.7,51,49c-58.4,58.4-58.4,153.5,0,211.9l199.3,199.3l199.3-199.3c28.3-28.3,43.9-65.9,43.9-106S478,77.3,449.7,49z
		 M424.5,74.2L424.5,74.2C446.1,95.8,458,124.5,458,155c0,24.5-7.7,47.8-21.8,67.2L276.6,62.6c19.4-14.2,42.7-21.8,67.2-21.8
		C374.2,40.7,402.9,52.6,424.5,74.2z M76.3,235.7c-44.5-44.5-44.5-117,0-161.5c21.6-21.6,50.3-33.5,80.8-33.5s59.2,11.9,80.8,33.4
		l0,0l0,0L412,248.2L250.4,409.8L76.3,235.7z"/>
</svg>
